<svg xmlns="http://www.w3.org/2000/svg" width="750" height="1050" viewBox="0 0 750 1050">
    
    <defs>
      <filter id="cardShadow" x="-20%" y="-20%" width="140%" height="140%">
        <feDropShadow dx="0" dy="10" stdDeviation="12" flood-color="#000000" flood-opacity="0.18"/>
      </filter>
      <filter id="softShadow" x="-20%" y="-20%" width="140%" height="140%">
        <feDropShadow dx="0" dy="4" stdDeviation="6" flood-color="#000000" flood-opacity="0.12"/>
      </filter>
    </defs>
    
    <rect x="28" y="24" width="694" height="1002" rx="36" fill="#FFF9F2" filter="url(#cardShadow)"/>
    <rect x="28" y="24" width="694" height="1002" rx="36" fill="none" stroke="#28334A" stroke-width="4"/>
    <rect x="28" y="24" width="694" height="96" rx="36" fill="#F0A045"/>
    <rect x="28" y="84" width="694" height="36" fill="#F0A045"/>
    <rect x="55" y="48" width="110" height="46" rx="23.0" fill="#FFFFFF" stroke="#C8741E" stroke-width="2"/><text x="110.0" y="80.0" text-anchor="middle" fill="#C8741E" font-size="26" font-weight="700" font-family="Microsoft YaHei, SimHei, sans-serif">E21</text>
    <rect x="178" y="48" width="96" height="46" rx="23.0" fill="#FFF4E7" stroke="#C8741E" stroke-width="2"/><text x="226.0" y="80.0" text-anchor="middle" fill="#C8741E" font-size="26" font-weight="700" font-family="Microsoft YaHei, SimHei, sans-serif">中危</text>
    <text x="666" y="80" text-anchor="end" fill="#FFFFFF" font-size="28" font-weight="700" font-family="Microsoft YaHei, SimHei, sans-serif">事件牌</text>

    <rect x="55" y="150" width="640" height="340" rx="30" fill="#FFF4E7" stroke="#28334A" stroke-width="4" filter="url(#softShadow)"/>
    <g transform="translate(45,140)">
      <circle cx="130" cy="90" r="58" fill="#FFE2BF" opacity="0.6"/><circle cx="600" cy="110" r="72" fill="#FFE2BF" opacity="0.45"/><rect x="58" y="58" width="44" height="88" rx="16" fill="#FFFFFF" opacity="0.55"/><rect x="640" y="74" width="34" height="74" rx="12" fill="#FFFFFF" opacity="0.45"/><rect x="148" y="310" width="470" height="36" rx="16" fill="#7E5B48"/><rect x="188" y="172" width="110" height="112" rx="24" fill="#E2E8F2" stroke="#28334A" stroke-width="4"/><circle cx="242" cy="228" r="34" fill="#C8D4E6" stroke="#28334A" stroke-width="4"/><rect x="356" y="120" width="18" height="138" rx="9" fill="#8897B0"/><path d="M364 202 L452 178" stroke="#8897B0" stroke-width="10" stroke-linecap="round"/><path d="M452 178 L516 222" stroke="#8897B0" stroke-width="10" stroke-linecap="round"/><rect x="514" y="220" width="68" height="106" rx="22" transform="rotate(14 548 273)" fill="#D3EDFF" stroke="#28334A" stroke-width="4"/><path d="M418 160 L448 146" stroke="#D85A57" stroke-width="8" stroke-linecap="round"/><path d="M452 144 L480 164" stroke="#D85A57" stroke-width="8" stroke-linecap="round"/><circle cx="554" cy="148" r="28" fill="#FFF3D3" stroke="#28334A" stroke-width="4"/><text x="554" y="158" text-anchor="middle" fill="#C8741E" font-size="36" font-weight="800" font-family="Arial">!</text>
    </g>

    <rect x="55" y="525" width="640" height="210" rx="28" fill="#FFFFFF" stroke="#28334A" stroke-width="4"/>
    <rect x="55" y="750" width="640" height="206" rx="28" fill="#FFF4E7" stroke="#28334A" stroke-width="4"/>

    <text x="70" y="560" fill="#28334A" font-size="42" font-weight="700" font-family="Microsoft YaHei, SimHei, sans-serif"><tspan x="70" dy="0">旋蒸装置夹具松动</tspan></text>
    <rect x="70" y="620" width="208" height="38" rx="19" fill="#FFE2BF" stroke="none"/>
    <text x="174" y="646" text-anchor="middle" fill="#C8741E" font-size="22" font-weight="700" font-family="Microsoft YaHei, SimHei, sans-serif">观察重点</text>
    <text x="70" y="670" fill="#344054" font-size="28" font-weight="400" font-family="Microsoft YaHei, SimHei, sans-serif"><tspan x="70" dy="0">旋蒸装置的夹具松动，或者收集瓶已经出</tspan><tspan x="70" dy="34">现明显偏斜。</tspan></text>

    <rect x="70" y="780" width="150" height="38" rx="19" fill="#F0A045" opacity="0.18"/>
    <text x="145" y="806" text-anchor="middle" fill="#C8741E" font-size="22" font-weight="700" font-family="Microsoft YaHei, SimHei, sans-serif">错误倾向</text>
    <text x="70" y="880" fill="#28334A" font-size="28" font-weight="500" font-family="Microsoft YaHei, SimHei, sans-serif"><tspan x="70" dy="0">不要一边手扶装置一边继续转。</tspan></text>
    <text x="520" y="806" fill="#C8741E" font-size="24" font-weight="700" font-family="Microsoft YaHei, SimHei, sans-serif"><tspan x="520" dy="0">设备姿态异常，不适合继续运行</tspan></text>
    <circle cx="640" cy="796" r="22" fill="#F0A045"/>
    <text x="640" y="804" text-anchor="middle" fill="#FFFFFF" font-size="28" font-weight="800" font-family="Arial">!</text>
    </svg>