<svg xmlns="http://www.w3.org/2000/svg" width="750" height="1050" viewBox="0 0 750 1050">
    
    <defs>
      <filter id="cardShadow" x="-20%" y="-20%" width="140%" height="140%">
        <feDropShadow dx="0" dy="10" stdDeviation="12" flood-color="#000000" flood-opacity="0.18"/>
      </filter>
      <filter id="softShadow" x="-20%" y="-20%" width="140%" height="140%">
        <feDropShadow dx="0" dy="4" stdDeviation="6" flood-color="#000000" flood-opacity="0.12"/>
      </filter>
    </defs>
    
    <rect x="28" y="24" width="694" height="1002" rx="36" fill="#FFF8F8" filter="url(#cardShadow)"/>
    <rect x="28" y="24" width="694" height="1002" rx="36" fill="none" stroke="#28334A" stroke-width="4"/>
    <rect x="28" y="24" width="694" height="96" rx="36" fill="#D85A57"/>
    <rect x="28" y="84" width="694" height="36" fill="#D85A57"/>
    <rect x="55" y="48" width="110" height="46" rx="23.0" fill="#FFFFFF" stroke="#AD3530" stroke-width="2"/><text x="110.0" y="80.0" text-anchor="middle" fill="#AD3530" font-size="26" font-weight="700" font-family="Microsoft YaHei, SimHei, sans-serif">E13</text>
    <rect x="178" y="48" width="96" height="46" rx="23.0" fill="#FFF0EF" stroke="#AD3530" stroke-width="2"/><text x="226.0" y="80.0" text-anchor="middle" fill="#AD3530" font-size="26" font-weight="700" font-family="Microsoft YaHei, SimHei, sans-serif">高危</text>
    <text x="666" y="80" text-anchor="end" fill="#FFFFFF" font-size="28" font-weight="700" font-family="Microsoft YaHei, SimHei, sans-serif">事件牌</text>

    <rect x="55" y="150" width="640" height="340" rx="30" fill="#FFF0EF" stroke="#28334A" stroke-width="4" filter="url(#softShadow)"/>
    <g transform="translate(45,140)">
      <circle cx="130" cy="90" r="58" fill="#FFD7D6" opacity="0.6"/><circle cx="600" cy="110" r="72" fill="#FFD7D6" opacity="0.45"/><rect x="58" y="58" width="44" height="88" rx="16" fill="#FFFFFF" opacity="0.55"/><rect x="640" y="74" width="34" height="74" rx="12" fill="#FFFFFF" opacity="0.45"/><circle cx="182" cy="182" r="30" fill="#F6C7A5" stroke="#28334A" stroke-width="4"/><rect x="168" y="184" width="28" height="8" rx="4" fill="#7BC6FF" stroke="#28334A" stroke-width="2"/><rect x="150" y="222" width="64" height="88" rx="20" fill="#FFFFFF" stroke="#28334A" stroke-width="4"/><line x1="164" y1="240" x2="122" y2="292" stroke="#28334A" stroke-width="10" stroke-linecap="round"/><line x1="200" y1="240" x2="252" y2="302" stroke="#28334A" stroke-width="10" stroke-linecap="round"/><line x1="170" y1="310" x2="158" y2="382" stroke="#28334A" stroke-width="12" stroke-linecap="round"/><line x1="194" y1="310" x2="206" y2="382" stroke="#28334A" stroke-width="12" stroke-linecap="round"/><line x1="250" y1="245" x2="382" y2="245" stroke="#28334A" stroke-width="8" stroke-linecap="round"/><path d="M368 206 Q418 180 460 212 Q488 236 484 276 Q480 322 432 334 Q394 342 370 316 Q344 288 350 250 Q352 220 368 206 Z" fill="#D85A57" opacity="0.16" stroke="#D85A57" stroke-width="6"/><path d="M402 198 C392 222 402 236 408 250 C414 238 430 228 422 205 C418 193 408 190 402 198 Z" fill="#D85A57" stroke="#28334A" stroke-width="4"/><rect x="520" y="124" width="110" height="190" rx="30" fill="#E1F4FF" stroke="#28334A" stroke-width="4"/><path d="M575 140 L575 194" stroke="#4E83D9" stroke-width="10" stroke-linecap="round"/><path d="M550 170 L600 170" stroke="#4E83D9" stroke-width="10" stroke-linecap="round"/><path d="M540 214 Q575 242 610 214" fill="none" stroke="#4E83D9" stroke-width="8" stroke-linecap="round"/><circle cx="575" cy="250" r="8" fill="#5BC4FF"/><circle cx="558" cy="276" r="8" fill="#5BC4FF"/><circle cx="592" cy="278" r="8" fill="#5BC4FF"/>
    </g>

    <rect x="55" y="525" width="640" height="210" rx="28" fill="#FFFFFF" stroke="#28334A" stroke-width="4"/>
    <rect x="55" y="750" width="640" height="206" rx="28" fill="#FFF0EF" stroke="#28334A" stroke-width="4"/>

    <text x="70" y="560" fill="#28334A" font-size="42" font-weight="700" font-family="Microsoft YaHei, SimHei, sans-serif"><tspan x="70" dy="0">皮肤接触腐蚀性液体</tspan></text>
    <rect x="70" y="620" width="208" height="38" rx="19" fill="#FFD7D6" stroke="none"/>
    <text x="174" y="646" text-anchor="middle" fill="#AD3530" font-size="22" font-weight="700" font-family="Microsoft YaHei, SimHei, sans-serif">观察重点</text>
    <text x="70" y="670" fill="#344054" font-size="28" font-weight="400" font-family="Microsoft YaHei, SimHei, sans-serif"><tspan x="70" dy="0">操作者手臂或手套被腐蚀性液体沾到，已</tspan><tspan x="70" dy="34">出现明显不适反应。</tspan></text>

    <rect x="70" y="780" width="150" height="38" rx="19" fill="#D85A57" opacity="0.18"/>
    <text x="145" y="806" text-anchor="middle" fill="#AD3530" font-size="22" font-weight="700" font-family="Microsoft YaHei, SimHei, sans-serif">错误倾向</text>
    <text x="70" y="880" fill="#28334A" font-size="28" font-weight="500" font-family="Microsoft YaHei, SimHei, sans-serif"><tspan x="70" dy="0">不要先擦拭、忍耐或继续完成手头步骤。</tspan></text>
    <text x="520" y="806" fill="#AD3530" font-size="24" font-weight="700" font-family="Microsoft YaHei, SimHei, sans-serif"><tspan x="520" dy="0">发生接触后需要立即冲洗</tspan></text>
    <circle cx="640" cy="796" r="22" fill="#D85A57"/>
    <text x="640" y="804" text-anchor="middle" fill="#FFFFFF" font-size="28" font-weight="800" font-family="Arial">!</text>
    </svg>