<svg xmlns="http://www.w3.org/2000/svg" width="750" height="1050" viewBox="0 0 750 1050">
    
    <defs>
      <filter id="cardShadow" x="-20%" y="-20%" width="140%" height="140%">
        <feDropShadow dx="0" dy="10" stdDeviation="12" flood-color="#000000" flood-opacity="0.18"/>
      </filter>
      <filter id="softShadow" x="-20%" y="-20%" width="140%" height="140%">
        <feDropShadow dx="0" dy="4" stdDeviation="6" flood-color="#000000" flood-opacity="0.12"/>
      </filter>
    </defs>
    
    <rect x="28" y="24" width="694" height="1002" rx="36" fill="#FFF8F8" filter="url(#cardShadow)"/>
    <rect x="28" y="24" width="694" height="1002" rx="36" fill="none" stroke="#28334A" stroke-width="4"/>
    <rect x="28" y="24" width="694" height="96" rx="36" fill="#D85A57"/>
    <rect x="28" y="84" width="694" height="36" fill="#D85A57"/>
    <rect x="55" y="48" width="110" height="46" rx="23.0" fill="#FFFFFF" stroke="#AD3530" stroke-width="2"/><text x="110.0" y="80.0" text-anchor="middle" fill="#AD3530" font-size="26" font-weight="700" font-family="Microsoft YaHei, SimHei, sans-serif">E15</text>
    <rect x="178" y="48" width="96" height="46" rx="23.0" fill="#FFF0EF" stroke="#AD3530" stroke-width="2"/><text x="226.0" y="80.0" text-anchor="middle" fill="#AD3530" font-size="26" font-weight="700" font-family="Microsoft YaHei, SimHei, sans-serif">高危</text>
    <text x="666" y="80" text-anchor="end" fill="#FFFFFF" font-size="28" font-weight="700" font-family="Microsoft YaHei, SimHei, sans-serif">事件牌</text>

    <rect x="55" y="150" width="640" height="340" rx="30" fill="#FFF0EF" stroke="#28334A" stroke-width="4" filter="url(#softShadow)"/>
    <g transform="translate(45,140)">
      <circle cx="130" cy="90" r="58" fill="#FFD7D6" opacity="0.6"/><circle cx="600" cy="110" r="72" fill="#FFD7D6" opacity="0.45"/><rect x="58" y="58" width="44" height="88" rx="16" fill="#FFFFFF" opacity="0.55"/><rect x="640" y="74" width="34" height="74" rx="12" fill="#FFFFFF" opacity="0.45"/><rect x="100" y="315" width="540" height="34" rx="16" fill="#7E5B48"/><rect x="125" y="347" width="22" height="56" rx="10" fill="#9B745F"/><rect x="593" y="347" width="22" height="56" rx="10" fill="#9B745F"/><rect x="460" y="154" width="118" height="72" rx="18" fill="#E3E8F3" stroke="#28334A" stroke-width="4"/><circle cx="488" cy="190" r="8" fill="#455A8B"/><circle cx="520" cy="190" r="8" fill="#455A8B"/><path d="M356 286.0 C312.0 234.0 350.0 194.0 362.0 152.0 C370.0 186.0 416.0 210.0 410.0 266.0 C404.0 316.0 364.0 334.0 356 286.0 Z" fill="#FF8B3D" stroke="#28334A" stroke-width="5"/><path d="M360.0 282.0 C338.0 246.0 364.0 212.0 368.0 184.0 C378.0 216.0 396.0 232.0 388.0 272.0 C382.0 300.0 362.0 302.0 360.0 282.0 Z" fill="#FFD363" stroke="#28334A" stroke-width="4"/><path d="M302 130 Q335 112 366 130" fill="none" stroke="#D85A57" stroke-width="7" stroke-linecap="round"/><path d="M284 112 Q332 86 386 108" fill="none" stroke="#D85A57" stroke-width="5" stroke-linecap="round" opacity="0.7"/><rect x="162" y="176" width="84" height="130" rx="18" fill="#FFFFFF" stroke="#28334A" stroke-width="4"/><line x1="204" y1="176" x2="204" y2="306" stroke="#28334A" stroke-width="4"/>
    </g>

    <rect x="55" y="525" width="640" height="210" rx="28" fill="#FFFFFF" stroke="#28334A" stroke-width="4"/>
    <rect x="55" y="750" width="640" height="206" rx="28" fill="#FFF0EF" stroke="#28334A" stroke-width="4"/>

    <text x="70" y="560" fill="#28334A" font-size="42" font-weight="700" font-family="Microsoft YaHei, SimHei, sans-serif"><tspan x="70" dy="0">实验台出现小型明火</tspan></text>
    <rect x="70" y="620" width="208" height="38" rx="19" fill="#FFD7D6" stroke="none"/>
    <text x="174" y="646" text-anchor="middle" fill="#AD3530" font-size="22" font-weight="700" font-family="Microsoft YaHei, SimHei, sans-serif">观察重点</text>
    <text x="70" y="670" fill="#344054" font-size="28" font-weight="400" font-family="Microsoft YaHei, SimHei, sans-serif"><tspan x="70" dy="0">实验台局部出现小型明火，旁边仍有电器</tspan><tspan x="70" dy="34">、热源或可燃物。</tspan></text>

    <rect x="70" y="780" width="150" height="38" rx="19" fill="#D85A57" opacity="0.18"/>
    <text x="145" y="806" text-anchor="middle" fill="#AD3530" font-size="22" font-weight="700" font-family="Microsoft YaHei, SimHei, sans-serif">错误倾向</text>
    <text x="70" y="880" fill="#28334A" font-size="28" font-weight="500" font-family="Microsoft YaHei, SimHei, sans-serif"><tspan x="70" dy="0">不要慌乱拍打，也不要使用不合适的方法</tspan><tspan x="70" dy="34">灭火。</tspan></text>
    <text x="520" y="806" fill="#AD3530" font-size="24" font-weight="700" font-family="Microsoft YaHei, SimHei, sans-serif"><tspan x="520" dy="0">小火源已出现，周边条件不安全</tspan></text>
    <circle cx="640" cy="796" r="22" fill="#D85A57"/>
    <text x="640" y="804" text-anchor="middle" fill="#FFFFFF" font-size="28" font-weight="800" font-family="Arial">!</text>
    </svg>